<svg width="24" height="24" viewBox="0 0 24 24" fill="none" xmlns="http://www.w3.org/2000/svg">
<g id="add_20">
<path id="&#226;&#134;&#179; Icon Color" fill-rule="evenodd" clip-rule="evenodd" d="M12.0004 3.90039C12.4975 3.90039 12.9004 4.30333 12.9004 4.80039V11.1004L19.2004 11.1004C19.6974 11.1004 20.1004 11.5033 20.1004 12.0004C20.1004 12.4974 19.6974 12.9004 19.2004 12.9004L12.9004 12.9004V19.2004C12.9004 19.6974 12.4975 20.1004 12.0004 20.1004C11.5034 20.1004 11.1004 19.6974 11.1004 19.2004V12.9004H4.80039C4.30333 12.9004 3.90039 12.4974 3.90039 12.0004C3.90039 11.5033 4.30333 11.1004 4.80039 11.1004H11.1004V4.80039C11.1004 4.30333 11.5034 3.90039 12.0004 3.90039Z" fill="#444444"/>
</g>
</svg>
