<svg width="32" height="32" viewBox="0 0 32 32" fill="none" xmlns="http://www.w3.org/2000/svg">
<g id="bookmark_outline_20">
<path id="&#226;&#134;&#179; Icon Color" fill-rule="evenodd" clip-rule="evenodd" d="M14.9076 2.40039H17.092C18.6159 2.40038 19.8328 2.40037 20.8156 2.48067C21.8236 2.56303 22.6906 2.7358 23.4869 3.14155C24.7664 3.79349 25.8067 4.83375 26.4587 6.11326C26.8644 6.90957 27.0372 7.77658 27.1195 8.7846C27.1998 9.76742 27.1998 10.9843 27.1998 12.5082V23.0198C27.1998 24.2619 27.1998 25.277 27.1288 26.0606C27.0587 26.8334 26.9053 27.6291 26.4063 28.2502C25.7164 29.109 24.6713 29.6047 23.5697 29.5954C22.773 29.5888 22.0598 29.2041 21.4171 28.7693C20.7653 28.3284 19.9793 27.6861 19.0176 26.9001L17.6704 25.7991C17.2238 25.4342 16.9388 25.2023 16.707 25.0399C16.4876 24.8862 16.3847 24.8453 16.3246 24.8285C16.1122 24.7687 15.8874 24.7687 15.675 24.8285C15.6149 24.8453 15.512 24.8862 15.2926 25.0399C15.0608 25.2023 14.7758 25.4342 14.3292 25.7992L12.982 26.9001C12.0203 27.6861 11.2343 28.3284 10.5826 28.7693C9.93979 29.2041 9.22658 29.5888 8.42993 29.5954C7.32836 29.6047 6.28321 29.109 5.59328 28.2502C5.09433 27.6291 4.94091 26.8334 4.87083 26.0606C4.79977 25.277 4.79979 24.2619 4.79981 23.0198V12.5082C4.79979 10.9843 4.79979 9.76742 4.88009 8.7846C4.96245 7.77658 5.13522 6.90957 5.54096 6.11326C6.1929 4.83375 7.23317 3.79349 8.51267 3.14155C9.30899 2.7358 10.176 2.56303 11.184 2.48067C12.1668 2.40037 13.3837 2.40038 14.9076 2.40039ZM11.3795 4.8727C10.5199 4.94293 10.0038 5.07534 9.60225 5.27996C8.77433 5.70181 8.10122 6.37492 7.67938 7.20283C7.47476 7.60442 7.34235 8.12044 7.27212 8.98004C7.20074 9.85365 7.19981 10.9724 7.19981 12.5604V22.9591C7.19981 24.2767 7.201 25.1819 7.26103 25.8439C7.32319 26.5294 7.43426 26.7097 7.4643 26.7471C7.69427 27.0334 8.04266 27.1986 8.40985 27.1955C8.4578 27.1951 8.66777 27.167 9.2379 26.7814C9.78846 26.4089 10.4901 25.8371 11.5104 25.0033L12.8419 23.9151C13.248 23.5833 13.6021 23.2938 13.9156 23.0742C14.2495 22.8403 14.6039 22.6365 15.0255 22.518C15.6627 22.3389 16.3369 22.3389 16.9741 22.518C17.3957 22.6365 17.7501 22.8403 18.084 23.0742C18.3975 23.2938 18.7516 23.5833 19.1577 23.9151L20.4892 25.0033C21.5095 25.8371 22.2112 26.4089 22.7617 26.7814C23.3318 27.167 23.5418 27.1951 23.5898 27.1955C23.957 27.1986 24.3053 27.0334 24.5353 26.7471C24.5654 26.7097 24.6764 26.5294 24.7386 25.8439C24.7986 25.1819 24.7998 24.2767 24.7998 22.9591V12.5604C24.7998 10.9724 24.7989 9.85365 24.7275 8.98004C24.6573 8.12044 24.5249 7.60442 24.3202 7.20283C23.8984 6.37492 23.2253 5.70181 22.3974 5.27996C21.9958 5.07534 21.4798 4.94293 20.6202 4.8727C19.7465 4.80132 18.6278 4.80039 17.0398 4.80039H14.9598C13.3719 4.80039 12.2531 4.80132 11.3795 4.8727Z" fill="#FDFDFD"/>
</g>
</svg>
