<svg width="20" height="23" viewBox="0 0 20 23" fill="none" xmlns="http://www.w3.org/2000/svg">
<path fill-rule="evenodd" clip-rule="evenodd" d="M8.95624 1.72106e-07H11.0438C12.4068 -7.93413e-06 13.4908 -1.43722e-05 14.3654 0.0714424C15.261 0.144616 16.0247 0.297677 16.7239 0.653961C17.8529 1.2292 18.7708 2.14708 19.346 3.27606C19.7023 3.9753 19.8554 4.73898 19.9286 5.63458C20 6.50916 20 7.59318 20 8.95622V17.6014C20 18.6083 20 19.4331 19.9419 20.0717C19.8844 20.704 19.7582 21.3536 19.3523 21.8664C18.7889 22.5782 17.9334 22.9966 17.0255 23.0044C16.3715 23.0099 15.7813 22.7107 15.2469 22.368C14.7071 22.0218 14.056 21.5153 13.2612 20.8971L11.3507 19.4111C10.575 18.8078 10.408 18.7019 10.2613 18.6622C10.0902 18.6159 9.90981 18.6159 9.73866 18.6622C9.59205 18.7019 9.42498 18.8078 8.64933 19.4111L6.7387 20.8972C5.94392 21.5154 5.29285 22.0218 4.75308 22.368C4.21866 22.7107 3.62848 23.0099 2.97448 23.0044C2.06665 22.9966 1.21115 22.5782 0.647702 21.8664C0.241791 21.3536 0.115634 20.704 0.0580907 20.0717C-2.96868e-05 19.4331 -1.55594e-05 18.6082 5.33903e-07 17.6013V8.95624C-7.57233e-06 7.5932 -1.46031e-05 6.50917 0.0714422 5.63458C0.144616 4.73898 0.297677 3.9753 0.653962 3.27606C1.2292 2.14708 2.14709 1.2292 3.27606 0.653961C3.97531 0.297677 4.73898 0.144616 5.63458 0.0714424C6.50917 -1.43722e-05 7.5932 -7.93413e-06 8.95624 1.72106e-07ZM5.79744 2.0648C5.02552 2.12787 4.55435 2.24729 4.18404 2.43597C3.43139 2.81947 2.81947 3.43139 2.43597 4.18404C2.24729 4.55435 2.12787 5.02552 2.0648 5.79744C2.00078 6.58104 2 7.58337 2 9V17.5509C2 18.6206 2.001 19.3535 2.04986 19.8904C2.10027 20.4443 2.19001 20.5924 2.2159 20.6251C2.40372 20.8624 2.68888 21.0019 2.99149 21.0044C3.03321 21.0048 3.20519 20.9847 3.67334 20.6845C4.12714 20.3934 4.70629 19.9442 5.55067 19.2875L7.42145 17.8324C7.463 17.8001 7.50414 17.768 7.54492 17.7362C8.12219 17.2857 8.62821 16.8909 9.21596 16.7317C9.72941 16.5927 10.2706 16.5927 10.784 16.7317C11.3718 16.8909 11.8778 17.2857 12.4551 17.7362C12.4959 17.768 12.537 17.8001 12.5785 17.8324L14.4493 19.2875C15.2937 19.9442 15.8729 20.3934 16.3267 20.6845C16.7948 20.9847 16.9668 21.0048 17.0085 21.0044C17.3111 21.0019 17.5963 20.8624 17.7841 20.6251C17.81 20.5924 17.8997 20.4443 17.9501 19.8904C17.999 19.3535 18 18.6206 18 17.5509V9C18 7.58337 17.9992 6.58104 17.9352 5.79744C17.8721 5.02552 17.7527 4.55435 17.564 4.18404C17.1805 3.43139 16.5686 2.81947 15.816 2.43597C15.4457 2.24729 14.9745 2.12787 14.2026 2.0648C13.419 2.00078 12.4166 2 11 2H9C7.58337 2 6.58104 2.00078 5.79744 2.0648Z" fill="#9181FE"/>
</svg>
