<svg width="22" height="22" viewBox="0 0 22 22" fill="none" xmlns="http://www.w3.org/2000/svg">
<path fill-rule="evenodd" clip-rule="evenodd" d="M0 5C0 3.60355 0 2.90533 0.196408 2.34402C0.548201 1.33866 1.33866 0.548201 2.34402 0.196409C2.90533 8.79169e-07 3.60355 0 5 0C6.39645 0 7.09467 8.79169e-07 7.65598 0.196409C8.66134 0.548201 9.4518 1.33866 9.80359 2.34402C10 2.90533 10 3.60355 10 5C10 6.39645 10 7.09467 9.80359 7.65598C9.4518 8.66134 8.66134 9.4518 7.65598 9.80359C7.09467 10 6.39645 10 5 10C3.60355 10 2.90533 10 2.34402 9.80359C1.33866 9.4518 0.548201 8.66134 0.196408 7.65598C0 7.09467 0 6.39645 0 5ZM2 4.4C2 3.55992 2 3.13988 2.16349 2.81901C2.3073 2.53677 2.53677 2.3073 2.81901 2.16349C3.13988 2 3.55992 2 4.4 2H5.6C6.44008 2 6.86012 2 7.18099 2.16349C7.46323 2.3073 7.6927 2.53677 7.83651 2.81901C8 3.13988 8 3.55992 8 4.4V5.6C8 6.44008 8 6.86012 7.83651 7.18099C7.6927 7.46323 7.46323 7.6927 7.18099 7.83651C6.86012 8 6.44008 8 5.6 8H4.4C3.55992 8 3.13988 8 2.81901 7.83651C2.53677 7.6927 2.3073 7.46323 2.16349 7.18099C2 6.86012 2 6.44008 2 5.6V4.4ZM0 17C0 15.6036 0 14.9053 0.196408 14.344C0.548201 13.3387 1.33866 12.5482 2.34402 12.1964C2.90533 12 3.60355 12 5 12C6.39645 12 7.09467 12 7.65598 12.1964C8.66134 12.5482 9.4518 13.3387 9.80359 14.344C10 14.9053 10 15.6036 10 17C10 18.3965 10 19.0947 9.80359 19.656C9.4518 20.6613 8.66134 21.4518 7.65598 21.8036C7.09467 22 6.39645 22 5 22C3.60355 22 2.90533 22 2.34402 21.8036C1.33866 21.4518 0.548201 20.6613 0.196408 19.656C0 19.0947 0 18.3965 0 17ZM2 16.4C2 15.5599 2 15.1399 2.16349 14.819C2.3073 14.5368 2.53677 14.3073 2.81901 14.1635C3.13988 14 3.55992 14 4.4 14H5.6C6.44008 14 6.86012 14 7.18099 14.1635C7.46323 14.3073 7.6927 14.5368 7.83651 14.819C8 15.1399 8 15.5599 8 16.4V17.6C8 18.4401 8 18.8601 7.83651 19.181C7.6927 19.4632 7.46323 19.6927 7.18099 19.8365C6.86012 20 6.44008 20 5.6 20H4.4C3.55992 20 3.13988 20 2.81901 19.8365C2.53677 19.6927 2.3073 19.4632 2.16349 19.181C2 18.8601 2 18.4401 2 17.6V16.4ZM12.1964 2.34402C12 2.90533 12 3.60355 12 5C12 6.39645 12 7.09467 12.1964 7.65598C12.5482 8.66134 13.3387 9.4518 14.344 9.80359C14.9053 10 15.6036 10 17 10C18.3965 10 19.0947 10 19.656 9.80359C20.6613 9.4518 21.4518 8.66134 21.8036 7.65598C22 7.09467 22 6.39645 22 5C22 3.60355 22 2.90533 21.8036 2.34402C21.4518 1.33866 20.6613 0.548201 19.656 0.196409C19.0947 8.79169e-07 18.3965 0 17 0C15.6036 0 14.9053 8.79169e-07 14.344 0.196409C13.3387 0.548201 12.5482 1.33866 12.1964 2.34402ZM14.1635 2.81901C14 3.13988 14 3.55992 14 4.4V5.6C14 6.44008 14 6.86012 14.1635 7.18099C14.3073 7.46323 14.5368 7.6927 14.819 7.83651C15.1399 8 15.5599 8 16.4 8H17.6C18.4401 8 18.8601 8 19.181 7.83651C19.4632 7.6927 19.6927 7.46323 19.8365 7.18099C20 6.86012 20 6.44008 20 5.6V4.4C20 3.55992 20 3.13988 19.8365 2.81901C19.6927 2.53677 19.4632 2.3073 19.181 2.16349C18.8601 2 18.4401 2 17.6 2H16.4C15.5599 2 15.1399 2 14.819 2.16349C14.5368 2.3073 14.3073 2.53677 14.1635 2.81901ZM12 17C12 15.6036 12 14.9053 12.1964 14.344C12.5482 13.3387 13.3387 12.5482 14.344 12.1964C14.9053 12 15.6036 12 17 12C18.3965 12 19.0947 12 19.656 12.1964C20.6613 12.5482 21.4518 13.3387 21.8036 14.344C22 14.9053 22 15.6036 22 17C22 18.3965 22 19.0947 21.8036 19.656C21.4518 20.6613 20.6613 21.4518 19.656 21.8036C19.0947 22 18.3965 22 17 22C15.6036 22 14.9053 22 14.344 21.8036C13.3387 21.4518 12.5482 20.6613 12.1964 19.656C12 19.0947 12 18.3965 12 17ZM14 16.4C14 15.5599 14 15.1399 14.1635 14.819C14.3073 14.5368 14.5368 14.3073 14.819 14.1635C15.1399 14 15.5599 14 16.4 14H17.6C18.4401 14 18.8601 14 19.181 14.1635C19.4632 14.3073 19.6927 14.5368 19.8365 14.819C20 15.1399 20 15.5599 20 16.4V17.6C20 18.4401 20 18.8601 19.8365 19.181C19.6927 19.4632 19.4632 19.6927 19.181 19.8365C18.8601 20 18.4401 20 17.6 20H16.4C15.5599 20 15.1399 20 14.819 19.8365C14.5368 19.6927 14.3073 19.4632 14.1635 19.181C14 18.8601 14 18.4401 14 17.6V16.4Z" fill="#9181FE"/>
</svg>
