<svg width="56" height="56" viewBox="0 0 56 56" fill="none" xmlns="http://www.w3.org/2000/svg">
<g id="coffee_steam_outline_56">
<g id="&#226;&#134;&#179; Icon Color">
<path fill-rule="evenodd" clip-rule="evenodd" d="M36.6325 2.10314C35.5846 1.75384 34.452 2.32017 34.1027 3.36805L33.8098 4.24673C33.1893 6.1082 33.3337 8.13992 34.2112 9.89493C34.6143 10.7011 34.6806 11.6343 34.3956 12.4894L34.1027 13.3681C33.7534 14.4159 34.3197 15.5486 35.3676 15.8979C36.4155 16.2472 37.5481 15.6809 37.8974 14.633L38.1903 13.7543C38.8108 11.8928 38.6664 9.86109 37.7889 8.10608C37.3858 7.29993 37.3195 6.36669 37.6045 5.51164L37.8974 4.63296C38.2467 3.58508 37.6804 2.45244 36.6325 2.10314Z" fill="#FDFDFD" fill-opacity="0.5"/>
<path fill-rule="evenodd" clip-rule="evenodd" d="M16.6325 2.10314C15.5846 1.75384 14.452 2.32017 14.1027 3.36805L13.8098 4.24673C13.1893 6.1082 13.3337 8.13992 14.2112 9.89493C14.6143 10.7011 14.6806 11.6343 14.3956 12.4894L14.1027 13.3681C13.7534 14.4159 14.3197 15.5486 15.3676 15.8979C16.4155 16.2472 17.5481 15.6809 17.8974 14.633L18.1903 13.7543C18.8108 11.8928 18.6664 9.86109 17.7889 8.10608C17.3858 7.29993 17.3195 6.36669 17.6045 5.51164L17.8974 4.63296C18.2467 3.58508 17.6804 2.45244 16.6325 2.10314Z" fill="#FDFDFD" fill-opacity="0.5"/>
<path fill-rule="evenodd" clip-rule="evenodd" d="M26.5353 0.0734713C25.4711 -0.22216 24.3687 0.400947 24.073 1.46522L23.6282 3.0665C23.1486 4.793 23.2626 6.63053 23.9517 8.28457L24.3561 9.25491C24.7006 10.0819 24.7576 11.0007 24.5178 11.8639L24.073 13.4652C23.7774 14.5295 24.4005 15.6319 25.4648 15.9275C26.529 16.2232 27.6315 15.6001 27.9271 14.5358L28.3719 12.9345C28.8515 11.208 28.7375 9.37049 28.0484 7.71644L27.6441 6.74611C27.2995 5.91909 27.2425 5.00032 27.4823 4.13707L27.9271 2.53579C28.2227 1.47152 27.5996 0.369102 26.5353 0.0734713Z" fill="#FDFDFD" fill-opacity="0.5"/>
<path fill-rule="evenodd" clip-rule="evenodd" d="M40.4364 20.0713C39.6084 20.0004 38.5934 20.0005 37.4073 20.0005H14.5931C13.407 20.0005 12.392 20.0004 11.564 20.0713C10.6967 20.1456 9.83159 20.3097 9.02065 20.7629C7.82285 21.4322 6.89066 22.4919 6.37949 23.7653C6.03341 24.6274 5.98096 25.5064 6.0179 26.3761C6.05317 27.2064 6.18262 28.2131 6.33389 29.3894L7.10375 35.3779L7.15318 35.7628C7.63887 39.5463 7.94194 41.9072 8.8399 43.8569C10.495 47.4507 13.5935 50.1763 17.3689 51.3597C19.4173 52.0017 21.7975 52.0013 25.6121 52.0006L26.0002 52.0005L26.3882 52.0006C30.2027 52.0013 32.583 52.0017 34.6313 51.3597C38.4067 50.1764 41.5052 47.4508 43.1603 43.8571C43.3447 43.4567 43.504 43.0389 43.645 42.5951L48.4885 41.142C51.7598 40.1606 54.0001 37.1497 54.0001 33.7344C54.0001 29.4631 50.5375 26.0005 46.2662 26.0005H45.9923C45.9983 25.254 45.9173 24.5035 45.621 23.7653C45.1098 22.492 44.1776 21.4322 42.9798 20.7629C42.1689 20.3097 41.3037 20.1456 40.4364 20.0713ZM44.8965 35.3781L44.8471 35.763C44.7358 36.6303 44.634 37.4228 44.5325 38.1527L47.3391 37.3107C48.9185 36.8369 50.0001 35.3832 50.0001 33.7344C50.0001 31.6722 48.3284 30.0005 46.2662 30.0005H45.5879L44.8965 35.3781ZM11.9052 24.0567C11.2884 24.1096 11.0705 24.1996 10.9719 24.2546C10.5727 24.4777 10.262 24.831 10.0916 25.2554C10.0495 25.3602 9.98803 25.5878 10.0143 26.2063C10.0414 26.8449 10.1471 27.6803 10.3118 28.9615L11.0711 34.8678C11.6234 39.1638 11.8646 40.8624 12.4731 42.1837C13.6553 44.7506 15.8685 46.6975 18.5653 47.5428C19.9533 47.9778 21.6689 48.0005 26.0002 48.0005C30.3314 48.0005 32.047 47.9778 33.435 47.5428C36.1317 46.6975 38.3449 44.7507 39.5271 42.1838C40.1356 40.8626 40.3769 39.1639 40.9292 34.868L41.6886 28.9616C41.8533 27.6804 41.959 26.8449 41.9861 26.2063C42.0124 25.5878 41.9509 25.3602 41.9089 25.2555C41.7385 24.831 41.4278 24.4778 41.0285 24.2546C40.93 24.1996 40.712 24.1096 40.0952 24.0567C39.4584 24.0022 38.6163 24.0005 37.3245 24.0005H14.6759C13.3841 24.0005 12.5421 24.0022 11.9052 24.0567Z" fill="#FDFDFD" fill-opacity="0.5"/>
</g>
</g>
</svg>
