<svg width="24" height="24" viewBox="0 0 24 24" fill="none" xmlns="http://www.w3.org/2000/svg">
<g id="comment_outline_20">
<path id="&#226;&#134;&#179; Icon Color" fill-rule="evenodd" clip-rule="evenodd" d="M7.71098 22.663C7.03837 22.3844 6.59981 21.728 6.59981 21V18.6C6.15579 18.5995 5.73724 18.5956 5.37737 18.5662C4.92588 18.5293 4.41072 18.4435 3.89649 18.1815C3.17394 17.8133 2.5865 17.2259 2.21835 16.5033C1.95633 15.9891 1.87047 15.4739 1.83358 15.0225C1.79971 14.6079 1.79976 14.1155 1.79981 13.5959C1.79998 11.7319 1.79998 9.86091 1.79981 8.00411C1.79976 7.48456 1.79971 6.99213 1.83358 6.57756C1.87047 6.12607 1.95633 5.61092 2.21835 5.09668C2.5865 4.37414 3.17394 3.7867 3.89649 3.41854C4.41072 3.15653 4.92588 3.07067 5.37737 3.03378C5.79194 2.99991 6.28437 2.99995 6.80391 3C10.2678 3.00033 13.7318 3.00001 17.1957 3C17.7153 2.99995 18.2077 2.99991 18.6223 3.03378C19.0737 3.07067 19.5889 3.15653 20.1031 3.41854C20.8257 3.7867 21.4131 4.37414 21.7813 5.09668C22.0433 5.61092 22.1292 6.12607 22.166 6.57756C22.1999 6.99214 22.1999 7.48457 22.1998 8.00412V13.5959C22.1999 14.1154 22.1999 14.6079 22.166 15.0225C22.1292 15.4739 22.0433 15.9891 21.7813 16.5033C21.4131 17.2259 20.8257 17.8133 20.1031 18.1815C19.5889 18.4435 19.0737 18.5293 18.6223 18.5662C18.2077 18.6001 17.7152 18.6001 17.1957 18.6L13.3951 18.6C13.3599 18.6 13.3352 18.6102 13.3102 18.6352L9.6726 22.2728C9.15781 22.7876 8.3836 22.9416 7.71098 22.663ZM8.39981 18.144C8.39981 17.6736 8.39981 17.4383 8.30826 17.2587C8.22772 17.1006 8.09922 16.9721 7.94116 16.8916C7.76148 16.8 7.52626 16.8 7.05581 16.8H6.86381C5.72131 16.8 5.15005 16.8 4.71367 16.5777C4.32982 16.3821 4.01774 16.07 3.82216 15.6861C3.59981 15.2498 3.59981 14.6785 3.59981 13.536V8.06401C3.59981 6.9215 3.59981 6.35025 3.82216 5.91387C4.01774 5.53002 4.32982 5.21794 4.71367 5.02235C5.15005 4.80001 5.72131 4.80001 6.86381 4.80001H17.1358C18.2783 4.80001 18.8496 4.80001 19.286 5.02235C19.6698 5.21794 19.9819 5.53002 20.1775 5.91387C20.3998 6.35025 20.3998 6.9215 20.3998 8.06401V13.536C20.3998 14.6785 20.3998 15.2498 20.1775 15.6861C19.9819 16.07 19.6698 16.3821 19.286 16.5777C18.8496 16.8 18.2783 16.8 17.1358 16.8H13.3951C13.1016 16.8 12.9548 16.8 12.8167 16.8332C12.6943 16.8626 12.5772 16.911 12.4699 16.9768C12.3488 17.0511 12.245 17.1548 12.0375 17.3624L8.39981 21V18.144Z" fill="#FDFDFD"/>
</g>
</svg>
