<svg width="23" height="23" viewBox="0 0 23 23" fill="none" xmlns="http://www.w3.org/2000/svg">
<path d="M7.07452 1.00171L15.002 1.002L15.0047 3.00258L7.12227 3.0012C5.45115 3.01573 4.75099 3.16391 4.02973 3.54964C3.38918 3.89221 2.89246 4.38894 2.54989 5.02948C2.14272 5.79082 2.00024 6.52864 2.00024 8.40971V15.5903C2.00024 17.4714 2.14272 18.2092 2.54989 18.9705C2.89246 19.6111 3.38918 20.1078 4.02973 20.4504C4.71092 20.8147 5.37329 20.9671 6.85257 20.9951L7.40996 21H14.5905L15.1479 20.9951C16.6272 20.9671 17.2896 20.8147 17.9708 20.4504C18.6113 20.1078 19.108 19.6111 19.4506 18.9705C19.8149 18.2893 19.9673 17.627 19.9954 16.1477L20.0002 15.5903L19.996 8L21.9976 7.99881L22.0002 15.5903C22.0002 17.7733 21.7975 18.823 21.2142 19.9137C20.6853 20.9028 19.903 21.685 18.914 22.214C17.8233 22.7973 16.7735 23 14.5905 23H7.40996C5.22695 23 4.17722 22.7973 3.08653 22.214C2.09745 21.685 1.31523 20.9028 0.786261 19.9137C0.233656 18.8804 0.0226351 17.8839 0.00195312 15.9257V8.07427C0.0226351 6.11609 0.233656 5.11957 0.786261 4.08629C1.31523 3.0972 2.09745 2.31499 3.08653 1.78602C4.11981 1.23341 5.11634 1.02239 7.07452 1.00171ZM20.1784 2.82183C20.608 3.2514 20.608 3.94788 20.1784 4.37746L11.2879 13.2679C10.6213 13.9346 9.82911 14.4624 8.95717 14.8209L8.52283 14.9995C8.31852 15.0835 8.08478 14.9859 8.00078 14.7816C7.96072 14.6842 7.96072 14.5749 8.00078 14.4774L8.17935 14.0431C8.53784 13.1711 9.06567 12.3789 9.7323 11.7123L18.6228 2.82183C19.0524 2.39225 19.7488 2.39225 20.1784 2.82183ZM21.0002 7C21.5131 7 21.9357 7.38604 21.9935 7.88338L22.0002 8H20.0002C20.0002 7.44772 20.448 7 21.0002 7ZM15.0002 1C15.5525 1 16.0002 1.44772 16.0002 2C16.0002 2.51284 15.6142 2.93551 15.1169 2.99327L15.0002 3V1ZM21.8002 0C22.463 0 23.0002 0.537258 23.0002 1.2C23.0002 1.86274 22.463 2.4 21.8002 2.4C21.1375 2.4 20.6002 1.86274 20.6002 1.2C20.6002 0.537258 21.1375 0 21.8002 0Z" fill="#666666"/>
</svg>
