<svg width="27" height="26" viewBox="0 0 27 26" fill="none" xmlns="http://www.w3.org/2000/svg">
<path fill-rule="evenodd" clip-rule="evenodd" d="M23.8715 6.52875C23.5157 6.16922 22.9543 6.11408 22.5354 6.39754C21.8545 6.85828 20.92 6.7858 20.3175 6.18325C19.7149 5.58071 19.6424 4.64621 20.1032 3.9653C20.3866 3.5464 20.3315 2.98501 19.972 2.62925C18.999 1.66656 18.2232 0.934306 17.266 0.623289C16.3513 0.326091 15.366 0.326091 14.4513 0.623289C13.8669 0.813186 13.3723 1.14776 12.8758 1.56929C12.3961 1.97652 11.8504 2.52219 11.1832 3.18941L3.68944 10.6832C3.02223 11.3504 2.47652 11.8961 2.06929 12.3758C1.64776 12.8723 1.31319 13.3669 1.12329 13.9513C0.826092 14.866 0.826091 15.8513 1.12329 16.766C1.43431 17.7232 2.16656 18.499 3.12926 19.472C3.48501 19.8315 4.04639 19.8867 4.46529 19.6032C5.1462 19.1425 6.08068 19.215 6.68321 19.8175C7.28575 20.4201 7.35824 21.3545 6.89751 22.0354C6.61407 22.4543 6.66921 23.0157 7.02874 23.3715C8.0017 24.3342 8.77758 25.0665 9.73481 25.3775C10.6495 25.6747 11.6348 25.6747 12.5495 25.3775C13.1339 25.1876 13.6285 24.853 14.125 24.4315C14.6047 24.0243 15.1504 23.4786 15.8175 22.8114L23.3113 15.3176C23.9786 14.6504 24.5243 14.1047 24.9315 13.625C25.353 13.1285 25.6876 12.6339 25.8775 12.0495C26.1747 11.1348 26.1747 10.1495 25.8775 9.23481C25.5665 8.27759 24.8342 7.50171 23.8715 6.52875ZM18.8312 7.66954C19.9338 8.77219 21.5369 9.06645 22.9076 8.55413C23.5389 9.22363 23.7741 9.56332 23.8784 9.88435C24.0385 10.3769 24.0385 10.9074 23.8784 11.3999C23.8084 11.6154 23.6662 11.8676 23.3291 12.2647C22.984 12.6712 22.4998 13.1565 21.7939 13.8624L20.6049 15.0515L19.4951 13.9417C19.0847 13.5313 18.4193 13.5313 18.0088 13.9417C17.5984 14.3521 17.5984 15.0176 18.0088 15.428L19.1186 16.5378L14.3624 21.2939C13.6565 21.9998 13.1712 22.484 12.7647 22.8291C12.3676 23.1662 12.1154 23.3084 11.8999 23.3784C11.4074 23.5385 10.8769 23.5385 10.3843 23.3784C10.0633 23.2741 9.72362 23.0389 9.05411 22.4075C9.5664 21.0369 9.27214 19.4339 8.1695 18.3312C7.06687 17.2286 5.46379 16.9343 4.09318 17.4466C3.46191 16.7771 3.22665 16.4374 3.12235 16.1164C2.96232 15.6239 2.96232 15.0934 3.12235 14.6009C3.19235 14.3854 3.33456 14.1332 3.67168 13.7361C4.01676 13.3296 4.50094 12.8443 5.20687 12.1383L9.96303 7.38218L11.0727 8.49189C11.4832 8.90232 12.1486 8.90232 12.559 8.49189C12.9695 8.08147 12.9695 7.41603 12.559 7.0056L11.4493 5.89589L12.6383 4.70687C13.3443 4.00094 13.8296 3.51676 14.2361 3.17168C14.6332 2.83456 14.8854 2.69235 15.1009 2.62235C15.5934 2.46232 16.1239 2.46232 16.6164 2.62235C16.9374 2.72665 17.2771 2.9619 17.9466 3.59316C17.4343 4.96378 17.7285 6.5669 18.8312 7.66954ZM15.5317 9.97824C15.1212 9.56781 14.4558 9.56781 14.0454 9.97824C13.6349 10.3887 13.6349 11.0541 14.0454 11.4645L15.0362 12.4554C15.4467 12.8658 16.1121 12.8658 16.5225 12.4554C16.933 12.045 16.933 11.3795 16.5225 10.9691L15.5317 9.97824Z" fill="#888888"/>
</svg>
