<svg width="24" height="24" viewBox="0 0 24 24" fill="none" xmlns="http://www.w3.org/2000/svg">
<g id="filter_24">
<g id="&#226;&#134;&#179; Icon Color">
<path fill-rule="evenodd" clip-rule="evenodd" d="M6.24234 8.89961C6.62102 10.0606 7.71252 10.8996 8.99998 10.8996C10.2874 10.8996 11.3789 10.0606 11.7576 8.89961C14.5051 8.89961 17.2525 8.89961 20 8.89961C20.497 8.89961 20.9 8.49667 20.9 7.99961C20.9 7.50255 20.497 7.09961 20 7.09961C17.2525 7.09961 14.5051 7.09961 11.7576 7.09961C11.7479 7.06925 11.7609 7.10971 11.7576 7.09961C11.3789 5.93857 10.2874 5.09961 8.99998 5.09961C7.71252 5.09961 6.62102 5.93857 6.24234 7.09961C5.49489 7.09961 4.74743 7.09961 3.99998 7.09961C3.50292 7.09961 3.09998 7.50255 3.09998 7.99961C3.09998 8.49667 3.50292 8.89961 3.99998 8.89961C4.74743 8.89961 5.49489 8.89961 6.24234 8.89961ZM8.99998 6.89961C8.39246 6.89961 7.89998 7.3921 7.89998 7.99961C7.89998 8.60712 8.39246 9.09961 8.99998 9.09961C9.60749 9.09961 10.1 8.60712 10.1 7.99961C10.1 7.3921 9.60749 6.89961 8.99998 6.89961Z" fill="#444444"/>
<path fill-rule="evenodd" clip-rule="evenodd" d="M3.09998 15.9996C3.09998 15.5026 3.50292 15.0996 3.99998 15.0996C6.74743 15.0996 9.49489 15.0996 12.2423 15.0996C12.621 13.9386 13.7125 13.0996 15 13.0996C16.2874 13.0996 17.3789 13.9386 17.7576 15.0996C17.7576 15.0996 19.4786 15.0996 20 15.0996C20.497 15.0996 20.9 15.5026 20.9 15.9996C20.9 16.4967 20.497 16.8996 20 16.8996C19.7777 16.8996 17.7576 16.8996 17.7576 16.8996C17.3789 18.0607 16.2874 18.8996 15 18.8996C13.7125 18.8996 12.621 18.0607 12.2423 16.8996C9.49489 16.8996 6.74743 16.8996 3.99998 16.8996C3.50292 16.8996 3.09998 16.4967 3.09998 15.9996ZM13.9 15.9996C13.9 15.3921 14.3925 14.8996 15 14.8996C15.6075 14.8996 16.1 15.3921 16.1 15.9996C16.1 16.6071 15.6075 17.0996 15 17.0996C14.3925 17.0996 13.9 16.6071 13.9 15.9996Z" fill="#444444"/>
</g>
</g>
</svg>
