<svg width="24" height="24" viewBox="0 0 24 24" fill="none" xmlns="http://www.w3.org/2000/svg">
<path d="M12 0C18.624 0 24 5.376 24 12C24 18.624 18.624 24 12 24C5.376 24 0 18.624 0 12C0 5.376 5.376 0 12 0ZM12 2C6.48056 2 2 6.48056 2 12C2 17.5194 6.48056 22 12 22C17.5194 22 22 17.5194 22 12C22 6.48056 17.5194 2 12 2ZM12 16.1004C12.7732 16.1004 13.4 16.7272 13.4 17.5004C13.4 18.2736 12.7732 18.9004 12 18.9004C11.2268 18.9004 10.6 18.2736 10.6 17.5004C10.6 16.7272 11.2268 16.1004 12 16.1004ZM11.934 4.99C13.9848 4.99 15.6458 6.66812 15.6458 8.74C15.6458 9.565 15.3118 10.315 14.7828 10.8494L13.9477 11.7119C13.451 12.2206 13.0928 12.6621 12.9416 13.4328C12.928 13.5023 12.918 13.6057 12.9117 13.7428C12.8887 14.2367 12.4816 14.6254 11.9871 14.6254H11.9779C11.4651 14.6255 11.0494 14.2098 11.0494 13.697L11.0494 13.6946C11.0501 13.4345 11.0582 13.2641 11.0737 13.1834C11.2173 12.4363 11.5814 11.7659 12.0918 11.2431L13.2424 10.0619C13.5717 9.73056 13.7899 9.25562 13.7899 8.74C13.7899 7.70875 12.9548 6.865 11.934 6.865C11.2854 6.865 10.7117 7.20568 10.3796 7.71866C10.3139 7.82013 10.2313 7.98186 10.1318 8.20386C9.93563 8.6412 9.43882 8.85736 8.98514 8.70274L8.94957 8.69062C8.48656 8.53282 8.23913 8.02955 8.39693 7.56653C8.4027 7.5496 8.40898 7.53285 8.41574 7.51629C8.48184 7.35503 8.54533 7.21248 8.6062 7.08867C9.24359 5.79205 10.4437 4.99 11.934 4.99Z" fill="#9181FE"/>
</svg>
