<svg width="29" height="28" viewBox="0 0 29 28" fill="none" xmlns="http://www.w3.org/2000/svg">
<g id="Arrow buttons (edit text)/inactive/left">
<path id="Vector" d="M5.63446 11.5968L4.81723 12.414L4 11.5968L4.81723 10.7796L5.63446 11.5968ZM25.285 20.8441C25.285 21.1507 25.1632 21.4447 24.9464 21.6614C24.7296 21.8782 24.4356 22 24.1291 22C23.8225 22 23.5285 21.8782 23.3117 21.6614C23.0949 21.4447 22.9731 21.1507 22.9731 20.8441H25.285ZM10.5968 18.1936L4.81723 12.414L6.45169 10.7796L12.2313 16.5591L10.5968 18.1936ZM4.81723 10.7796L10.5968 5L12.2313 6.63446L6.45169 12.414L4.81723 10.7796ZM5.63446 10.4409H17.1936V12.7527H5.63446V10.4409ZM25.285 18.5323V20.8441H22.9731V18.5323H25.285ZM17.1936 10.4409C19.3396 10.4409 21.3976 11.2934 22.9151 12.8108C24.4325 14.3282 25.285 16.3863 25.285 18.5323H22.9731C22.9731 16.9994 22.3642 15.5294 21.2804 14.4455C20.1965 13.3616 18.7264 12.7527 17.1936 12.7527V10.4409Z" fill="#B6B6B6"/>
</g>
</svg>
