<svg width="32" height="32" viewBox="0 0 32 32" fill="none" xmlns="http://www.w3.org/2000/svg">
<g id="place_outline_32">
<g id="&#226;&#134;&#179; Icon Color">
<path fill-rule="evenodd" clip-rule="evenodd" d="M18.601 28.9349C17.0121 30.4631 14.5595 30.3317 13.1204 28.6381L12.7873 28.2431C7.95068 22.4639 5.5 17.5829 5.5 13.5174C5.5 7.69156 10.216 3 16 3C21.784 3 26.5 7.69156 26.5 13.5174C26.5 17.6748 23.937 22.6867 18.8769 28.6413C18.7896 28.744 18.6975 28.842 18.601 28.9349ZM16.9719 27.0224C21.9565 21.1566 24 16.7352 24 13.5174C24 9.07337 20.4043 5.5 16 5.5C11.5957 5.5 8 9.07337 8 13.5174C8 16.659 9.94824 20.9546 14.7014 26.6349L15.0278 27.022C15.5453 27.6283 16.3314 27.649 16.8679 27.133C16.9037 27.0986 16.9385 27.0617 16.9719 27.0224Z" fill="#444444"/>
<path fill-rule="evenodd" clip-rule="evenodd" d="M11.5 13.5C11.5 11.0158 13.5158 9 16 9C18.4842 9 20.5 11.0158 20.5 13.5C20.5 15.9842 18.4842 18 16 18C13.5158 18 11.5 15.9842 11.5 13.5ZM14 13.5C14 12.3965 14.8965 11.5 16 11.5C17.1035 11.5 18 12.3965 18 13.5C18 14.6035 17.1035 15.5 16 15.5C14.8965 15.5 14 14.6035 14 13.5Z" fill="#444444"/>
</g>
</g>
</svg>
