<svg width="25" height="24" viewBox="0 0 25 24" fill="none" xmlns="http://www.w3.org/2000/svg">
<path d="M12.25 0C18.8774 0 24.25 5.37258 24.25 12C24.25 18.6274 18.8774 24 12.25 24C5.62258 24 0.25 18.6274 0.25 12C0.25 5.37258 5.62258 0 12.25 0ZM12.25 18.5C10.1641 18.5 8.17004 19.082 6.45321 20.149C8.08817 21.3146 10.089 22 12.25 22C14.4105 22 16.411 21.3148 18.046 20.15C16.3295 19.0818 14.3357 18.5 12.25 18.5ZM12.25 2C6.72715 2 2.25 6.47715 2.25 12C2.25 14.6157 3.25426 16.9968 4.89823 18.7788C7.03562 17.3082 9.58098 16.5 12.25 16.5C14.9193 16.5 17.4649 17.3084 19.6027 18.7774C21.2461 16.9959 22.25 14.6152 22.25 12C22.25 6.47715 17.7728 2 12.25 2ZM12.25 5.5C14.8742 5.5 17 7.62584 17 10.25C17 12.8742 14.8742 15 12.25 15C9.62584 15 7.5 12.8742 7.5 10.25C7.5 7.62584 9.62584 5.5 12.25 5.5ZM12.25 7.5C10.7304 7.5 9.5 8.73041 9.5 10.25C9.5 11.7696 10.7304 13 12.25 13C13.7696 13 15 11.7696 15 10.25C15 8.73041 13.7696 7.5 12.25 7.5Z" fill="#9181FE"/>
</svg>
