<svg width="23" height="23" viewBox="0 0 23 23" fill="none" xmlns="http://www.w3.org/2000/svg">
<path d="M13.0598 16.354C13.3576 16.0935 13.7398 15.9499 14.1354 15.9499H18.5829C19.753 15.9499 20.4495 15.2533 20.4495 14.0832V4.74987C20.4495 3.57977 19.753 2.8832 18.5829 2.8832H4.58288C3.41278 2.8832 2.71621 3.57977 2.71621 4.74987V14.0832C2.71621 15.2533 3.41278 15.9499 4.58288 15.9499H7.49838C8.31423 16.1852 8.31423 16.1852 8.54954 17.001V20.301L13.0598 16.354ZM7.30704 22.2878C6.75637 21.8748 6.44954 21.1461 6.44954 20.4999V18.0499H4.58288C2.25298 18.0499 0.616211 16.4131 0.616211 14.0832V4.74987C0.616211 2.41997 2.25298 0.783203 4.58288 0.783203H18.5829C20.9128 0.783203 22.5495 2.41997 22.5495 4.74987V14.0832C22.5495 16.4131 20.9128 18.0499 18.5829 18.0499H14.3107L9.96523 21.8522C9.11024 22.6908 8.11124 22.8909 7.30704 22.2878Z" fill="#9181FE"/>
</svg>
