<svg width="56" height="56" viewBox="0 0 56 56" fill="none" xmlns="http://www.w3.org/2000/svg">
<g id="movie_reel_outline_56  ">
<g id="&#226;&#134;&#179; Icon Color">
<path fill-rule="evenodd" clip-rule="evenodd" d="M8 28C8 16.9543 16.9543 8 28 8C39.0457 8 48 16.9543 48 28C48 39.0457 39.0457 48 28 48C16.9543 48 8 39.0457 8 28ZM41.2712 48C47.738 43.7003 52 36.3479 52 28C52 14.7452 41.2548 4 28 4C14.7452 4 4 14.7452 4 28C4 41.2548 14.7452 52 28 52H50C51.1046 52 52 51.1046 52 50C52 48.8954 51.1046 48 50 48H41.2712Z" fill="#FDFDFD" fill-opacity="0.5"/>
<path fill-rule="evenodd" clip-rule="evenodd" d="M15 20.5C15 17.4624 17.4624 15 20.5 15C23.5376 15 26 17.4624 26 20.5C26 23.5376 23.5376 26 20.5 26C17.4624 26 15 23.5376 15 20.5ZM20.5 19C19.6716 19 19 19.6716 19 20.5C19 21.3284 19.6716 22 20.5 22C21.3284 22 22 21.3284 22 20.5C22 19.6716 21.3284 19 20.5 19Z" fill="#FDFDFD" fill-opacity="0.5"/>
<path fill-rule="evenodd" clip-rule="evenodd" d="M20.5 30C17.4624 30 15 32.4624 15 35.5C15 38.5376 17.4624 41 20.5 41C23.5376 41 26 38.5376 26 35.5C26 32.4624 23.5376 30 20.5 30ZM19 35.5C19 34.6716 19.6716 34 20.5 34C21.3284 34 22 34.6716 22 35.5C22 36.3284 21.3284 37 20.5 37C19.6716 37 19 36.3284 19 35.5Z" fill="#FDFDFD" fill-opacity="0.5"/>
<path fill-rule="evenodd" clip-rule="evenodd" d="M30 20.5C30 17.4624 32.4624 15 35.5 15C38.5376 15 41 17.4624 41 20.5C41 23.5376 38.5376 26 35.5 26C32.4624 26 30 23.5376 30 20.5ZM35.5 19C34.6716 19 34 19.6716 34 20.5C34 21.3284 34.6716 22 35.5 22C36.3284 22 37 21.3284 37 20.5C37 19.6716 36.3284 19 35.5 19Z" fill="#FDFDFD" fill-opacity="0.5"/>
<path fill-rule="evenodd" clip-rule="evenodd" d="M35.5 30C32.4624 30 30 32.4624 30 35.5C30 38.5376 32.4624 41 35.5 41C38.5376 41 41 38.5376 41 35.5C41 32.4624 38.5376 30 35.5 30ZM34 35.5C34 34.6716 34.6716 34 35.5 34C36.3284 34 37 34.6716 37 35.5C37 36.3284 36.3284 37 35.5 37C34.6716 37 34 36.3284 34 35.5Z" fill="#FDFDFD" fill-opacity="0.5"/>
</g>
</g>
</svg>
