<svg width="56" height="56" viewBox="0 0 56 56" fill="none" xmlns="http://www.w3.org/2000/svg">
<g id="music_mic_outline_56">
<g id="&#226;&#134;&#179; Icon Color">
<path fill-rule="evenodd" clip-rule="evenodd" d="M38.0005 10C33.5823 10 30.0005 13.5817 30.0005 18C30.0005 22.4183 33.5823 26 38.0005 26C42.4188 26 46.0005 22.4183 46.0005 18C46.0005 13.5817 42.4188 10 38.0005 10ZM26.0005 18C26.0005 11.3726 31.3731 6 38.0005 6C44.628 6 50.0005 11.3726 50.0005 18C50.0005 24.6274 44.628 30 38.0005 30C31.3731 30 26.0005 24.6274 26.0005 18Z" fill="#FDFDFD" fill-opacity="0.5"/>
<path fill-rule="evenodd" clip-rule="evenodd" d="M23.2985 24.4784C24.1389 25.1953 24.239 26.4576 23.5221 27.298L10.5002 42.5631C9.79646 43.3882 9.84505 44.6156 10.6119 45.3824C11.3787 46.1492 12.6061 46.1978 13.4311 45.494L28.6963 32.4721C29.5366 31.7553 30.799 31.8554 31.5158 32.6957C32.2327 33.5361 32.1326 34.7984 31.2922 35.5153L16.0271 48.5372C13.6147 50.5951 10.0256 50.453 7.78344 48.2108C5.54124 45.9686 5.39915 42.3796 7.45707 39.9672L20.4789 24.702C21.1958 23.8617 22.4582 23.7616 23.2985 24.4784Z" fill="#FDFDFD" fill-opacity="0.5"/>
</g>
</g>
</svg>
