<svg width="25" height="24" viewBox="0 0 25 24" fill="none" xmlns="http://www.w3.org/2000/svg">
<path d="M13.8696 6.46959C13.8696 5.50309 14.6531 4.71959 15.6196 4.71959C16.5861 4.71959 17.3696 5.50309 17.3696 6.46959C17.3696 7.43609 16.5861 8.21959 15.6196 8.21959C14.6531 8.21959 13.8696 7.43609 13.8696 6.46959Z" fill="#888888"/>
<path d="M18.9796 9.47963C18.0131 9.47963 17.2296 10.2631 17.2296 11.2296C17.2296 12.1961 18.0131 12.9796 18.9796 12.9796C19.9461 12.9796 20.7296 12.1961 20.7296 11.2296C20.7296 10.2631 19.9461 9.47963 18.9796 9.47963Z" fill="#888888"/>
<path d="M4.76959 11.2296C4.76959 10.2631 5.55309 9.47963 6.51959 9.47963C7.48609 9.47963 8.26959 10.2631 8.26959 11.2296C8.26959 12.1961 7.48609 12.9796 6.51959 12.9796C5.55309 12.9796 4.76959 12.1961 4.76959 11.2296Z" fill="#888888"/>
<path d="M9.73958 4.71959C8.77308 4.71959 7.98957 5.50309 7.98957 6.46959C7.98957 7.43609 8.77308 8.21959 9.73958 8.21959C10.7061 8.21959 11.4896 7.43609 11.4896 6.46959C11.4896 5.50309 10.7061 4.71959 9.73958 4.71959Z" fill="#888888"/>
<path fill-rule="evenodd" clip-rule="evenodd" d="M18.5978 17.6516C21.5954 17.9731 24.6497 16.6115 24.6496 11.9996C24.6496 8.71352 23.3177 5.73851 21.1642 3.58504C19.0107 1.43156 16.0357 0.0996094 12.7496 0.0996094C9.46352 0.0996094 6.48851 1.43156 4.33504 3.58504C2.18156 5.73851 0.849609 8.71352 0.849609 11.9996C0.849609 15.2857 2.18156 18.2607 4.33504 20.4142C6.48851 22.5677 9.46352 23.8996 12.7496 23.8996C14.3307 23.8996 15.9065 22.4904 15.5174 20.5042C15.4514 20.1674 15.3641 19.8441 15.2825 19.542C14.9269 18.2257 14.6807 17.3142 16.789 17.4596C16.8391 17.463 17.4254 17.5259 18.5978 17.6516ZM18.8216 15.5636L18.4776 15.5267C17.5629 15.4286 17.0256 15.3709 16.9334 15.3646C16.1973 15.3138 15.2925 15.33 14.4973 15.7332C14.0487 15.9607 13.6417 16.3081 13.3538 16.7879C13.0759 17.2509 12.9791 17.7197 12.9535 18.0952C12.908 18.7615 13.078 19.4166 13.17 19.7706C13.2063 19.91 13.2398 20.034 13.2708 20.1489C13.3453 20.4247 13.4058 20.6486 13.4566 20.9079C13.492 21.0887 13.476 21.2125 13.4524 21.295C13.4277 21.3814 13.3827 21.4631 13.3145 21.5384C13.1625 21.7066 12.9358 21.7996 12.7496 21.7996C10.0428 21.7996 7.59571 20.705 5.81996 18.9293C4.04421 17.1535 2.94961 14.7064 2.94961 11.9996C2.94961 9.29283 4.04421 6.84571 5.81996 5.06996C7.59571 3.29421 10.0428 2.19961 12.7496 2.19961C15.4564 2.19961 17.9035 3.29421 19.6793 5.06996C21.455 6.84571 22.5496 9.29284 22.5496 11.9996C22.5496 13.816 21.9725 14.6221 21.4664 15.0119C20.8889 15.4568 19.9755 15.6874 18.8216 15.5636Z" fill="#888888"/>
</svg>
