<svg width="48" height="48" viewBox="0 0 48 48" fill="none" xmlns="http://www.w3.org/2000/svg">
<g id="picture_stack_outline_56">
<path id="&#226;&#134;&#179; Icon Color" d="M34.0664 11.9997C37.123 11.9997 38.2314 12.318 39.3489 12.9156C40.4664 13.5132 41.3434 14.3902 41.941 15.5077C42.5386 16.6251 42.8569 17.7335 42.8569 20.7902V32.3521C42.8569 35.4088 42.5386 36.5172 41.941 37.6346C41.3434 38.7521 40.4664 39.6291 39.3489 40.2267C38.2314 40.8243 37.123 41.1426 34.0664 41.1426H13.933C10.8764 41.1426 9.768 40.8243 8.65054 40.2267C7.53308 39.6291 6.65609 38.7521 6.05846 37.6346C5.49229 36.576 5.17685 35.5254 5.14522 32.8188L5.14258 20.7902C5.14258 17.7335 5.46084 16.6251 6.05846 15.5077C6.65609 14.3902 7.53308 13.5132 8.65054 12.9156C9.70918 12.3494 10.7597 12.034 13.4663 12.0024L34.0664 11.9997ZM34.2837 24.7094L25.818 33.1772C24.8766 34.1187 23.3867 34.1775 22.3767 33.3538L22.1814 33.1772L18.8569 29.8523L11.172 37.5381C11.6855 37.651 12.3814 37.703 13.5257 37.7124L34.0664 37.714C36.3356 37.714 37.0266 37.5806 37.732 37.2033C38.252 36.9253 38.6395 36.5377 38.9176 36.0177L39.0479 35.7508C39.3062 35.1604 39.4128 34.448 39.4267 32.7595L39.4266 29.8523L34.2837 24.7094ZM34.4738 15.4299H13.5257L12.8126 15.4431C11.4042 15.4869 10.8405 15.6325 10.2674 15.939C9.74748 16.217 9.3599 16.6046 9.08182 17.1246L8.95157 17.3915C8.69319 17.9819 8.58664 18.6943 8.57274 20.3828V32.7595L8.58595 33.4726C8.60893 34.2112 8.65989 34.7175 8.74739 35.1147L17.0386 26.8222C17.98 25.8808 19.4699 25.8219 20.4798 26.6457L20.6751 26.8222L23.9997 30.1472L32.4672 21.6793C33.4086 20.7379 34.8984 20.6791 35.9084 21.5028L36.1037 21.6793L39.4283 25.0026V20.7902C39.4283 18.521 39.2948 17.8299 38.9176 17.1246C38.6395 16.6046 38.252 16.217 37.732 15.939L37.465 15.8087C36.8746 15.5503 36.1623 15.4438 34.4738 15.4299ZM14.5711 18.8569C15.9913 18.8569 17.1426 20.0081 17.1426 21.4283C17.1426 22.8485 15.9913 23.9997 14.5711 23.9997C13.151 23.9997 11.9997 22.8485 11.9997 21.4283C11.9997 20.0081 13.151 18.8569 14.5711 18.8569ZM29.8902 5.14258C31.4185 5.14258 31.9727 5.30171 32.5315 5.60052C33.0902 5.89933 33.5287 6.33783 33.8275 6.89656C34.0526 7.31746 34.1984 7.73579 34.2567 8.56992H13.7428C13.801 7.73579 13.9468 7.31746 14.1719 6.89656C14.4708 6.33783 14.9093 5.89933 15.468 5.60052C16.0267 5.30171 16.5809 5.14258 18.1092 5.14258H29.8902Z" fill="#FDFDFD" fill-opacity="0.5"/>
</g>
</svg>
