<svg width="23" height="24" viewBox="0 0 23 24" fill="none" xmlns="http://www.w3.org/2000/svg">
<path d="M9.49662 9.50042C9.49343 10.3288 8.81912 11.0004 7.99051 11.0004C7.1619 11.0004 6.49277 10.3288 6.49596 9.50042C6.49916 8.672 7.17347 8.00043 8.00208 8.00043C8.83069 8.00043 9.49982 8.672 9.49662 9.50042Z" fill="#9181FE"/>
<path d="M14.9915 9.50041C15.8201 9.50041 16.4945 8.82884 16.4979 8.00042C16.5012 7.172 15.8322 6.50044 15.0036 6.50044C14.175 6.50044 13.5006 7.172 13.4972 8.00042C13.4939 8.82884 14.1629 9.50041 14.9915 9.50041Z" fill="#9181FE"/>
<path fill-rule="evenodd" clip-rule="evenodd" d="M6.71449 1.6325L13.3175 0.468467C14.4437 0.269919 15.3489 0.110343 16.0918 0.0410641C16.8556 -0.0301697 17.535 -0.0162856 18.1953 0.185554C19.2484 0.50744 20.1725 1.15437 20.8352 2.03363C21.2508 2.58497 21.4962 3.21851 21.6905 3.96048C21.9273 4.86483 22.0754 5.79313 22.2376 6.71298L22.8319 10.0827C23.8903 16.0839 19.899 21.8913 13.8788 22.9526C11.8664 23.3074 9.83938 23.7721 7.80305 23.962C7.03922 24.0333 6.35981 24.0194 5.69948 23.8175C4.6464 23.4957 3.72229 22.8487 3.05957 21.9695C2.64402 21.4181 2.3986 20.7846 2.20431 20.0426C2.01535 19.321 1.85575 18.4161 1.65718 17.2901L0.468569 10.5506C0.269978 9.42467 0.110367 8.51971 0.0410728 7.77701C-0.0301767 7.01336 -0.0162895 6.3341 0.185595 5.67391C0.507551 4.62107 1.15463 3.69716 2.03407 3.03459C2.58554 2.61912 3.21922 2.37376 3.96135 2.17951C4.68311 1.99059 5.58827 1.83103 6.71449 1.6325ZM19.7553 4.46701C20.0366 5.54151 20.1907 6.65074 20.3841 7.74317C20.5617 8.74652 20.5939 9.00623 20.5646 9.19575C20.4981 9.62435 20.2378 9.9984 19.8589 10.2096C19.347 10.495 18.7129 10.4946 18.1466 10.5973C16.7854 10.8441 15.8684 11.0103 15.1415 11.4003C13.7599 12.1416 12.7913 13.4611 12.4909 14.9864C11.5125 15.2147 10.5347 15.1389 9.75594 14.9826C9.0287 14.8367 8.51312 14.6262 8.42723 14.5897L8.41692 14.5853L8.41571 14.5847C7.91325 14.3597 7.32082 14.5844 7.09172 15.0873C6.86236 15.5907 7.08405 16.1824 7.58689 16.4087C8.1499 16.654 8.75068 16.822 9.35148 16.9426C10.1977 17.1124 11.3163 17.223 12.5098 17.019C12.5748 17.4399 12.6652 17.909 12.7691 18.4478C12.8657 18.9487 13.067 19.5155 13.0029 20.0276C12.9458 20.4839 12.6693 20.8836 12.2624 21.098C11.3497 21.5791 9.953 21.5887 8.9419 21.7875C8.10426 21.9258 7.11794 22.1597 6.28435 21.9049C5.63527 21.7065 5.06567 21.3078 4.6572 20.7658C4.46386 20.5093 4.30238 20.158 4.13953 19.5361C3.9737 18.9028 3.82754 18.0786 3.61975 16.9004L2.4461 10.2457C2.23831 9.06756 2.09368 8.24302 2.03287 7.59126C1.97315 6.95116 2.0047 6.5658 2.09863 6.25865C2.29707 5.60972 2.69591 5.04025 3.23797 4.63186C3.49453 4.43857 3.84594 4.27712 4.468 4.1143C5.10138 3.94852 5.92583 3.80239 7.10426 3.59464L13.6225 2.44556C14.8009 2.23781 15.6256 2.09322 16.2775 2.03242C16.9178 1.97271 17.3032 2.00426 17.6105 2.09816C18.2595 2.29656 18.8291 2.69531 19.2376 3.23726C19.4309 3.49376 19.5924 3.8451 19.7553 4.46701ZM14.9268 20.6198C18.6064 19.3375 21.0701 15.771 21 11.8571C20.3057 12.2976 19.4817 12.3874 18.6899 12.5314C17.0726 12.8252 16.4988 12.9419 16.0873 13.1626C15.1676 13.656 14.5449 14.5652 14.4172 15.6009C14.36 16.0642 14.4586 16.6413 14.7693 18.2552C14.9203 19.0373 15.1098 19.8272 14.9268 20.6198Z" fill="#9181FE"/>
</svg>
