<svg width="24" height="24" viewBox="0 0 24 24" fill="none" xmlns="http://www.w3.org/2000/svg">
<g id="Review check/default">
<path id="&#226;&#134;&#179; Icon Color" d="M11.9999 16.4377L16.8771 19.4167C16.9167 19.4409 16.9643 19.4484 17.0095 19.4376C17.1039 19.4151 17.1621 19.3203 17.1396 19.2259L15.8136 13.6669L20.1539 9.94904C20.1891 9.91884 20.211 9.87591 20.2147 9.82963C20.2225 9.7329 20.1503 9.64819 20.0536 9.64044L14.3569 9.18374L12.1622 3.907C12.1444 3.86413 12.1103 3.83007 12.0674 3.81224C11.9778 3.77497 11.875 3.8174 11.8377 3.907L9.64299 9.18374L3.94631 9.64044C3.90003 9.64415 3.8571 9.66602 3.8269 9.70128C3.76377 9.77498 3.77233 9.88591 3.84603 9.94904L8.18631 13.6669L6.86028 19.2259C6.84951 19.2711 6.85705 19.3187 6.88125 19.3583C6.93183 19.4411 7.03998 19.4673 7.12279 19.4167L11.9999 16.4377ZM11.9999 18.4465L8.01637 20.8796C7.12558 21.4237 5.96237 21.1427 5.41827 20.2519C5.15799 19.8257 5.07692 19.3139 5.19278 18.8282L6.27586 14.2877L2.7308 11.251C1.93806 10.5719 1.84591 9.37878 2.52497 8.58604C2.84983 8.20681 3.31156 7.97154 3.80931 7.93164L8.46227 7.55861L10.2549 3.24866C10.6557 2.28488 11.762 1.82854 12.7258 2.2294C13.1868 2.42117 13.5533 2.7876 13.745 3.24866L15.5376 7.55861L20.1906 7.93164C21.2311 8.01505 22.0069 8.92615 21.9235 9.96663C21.8836 10.4644 21.6483 10.9261 21.2691 11.251L17.724 14.2877L18.8071 18.8282C19.0493 19.8435 18.4226 20.8629 17.4072 21.1051C16.9215 21.221 16.4097 21.1399 15.9835 20.8796L11.9999 18.4465Z" fill="#FDFDFD"/>
</g>
</svg>
