<svg width="29" height="28" viewBox="0 0 29 28" fill="none" xmlns="http://www.w3.org/2000/svg">
<g id="Arrow buttons (edit text)/inactive/right">
<path id="Vector" d="M23.6505 11.5968L24.4677 12.414L25.285 11.5968L24.4677 10.7796L23.6505 11.5968ZM4 20.8441C4 21.1507 4.12178 21.4447 4.33856 21.6614C4.55533 21.8782 4.84935 22 5.15591 22C5.46248 22 5.75649 21.8782 5.97327 21.6614C6.19004 21.4447 6.31182 21.1507 6.31182 20.8441H4ZM18.6882 18.1936L24.4677 12.414L22.8333 10.7796L17.0537 16.5591L18.6882 18.1936ZM24.4677 10.7796L18.6882 5L17.0537 6.63446L22.8333 12.414L24.4677 10.7796ZM23.6505 10.4409H12.0914V12.7527H23.6505V10.4409ZM4 18.5323V20.8441H6.31182V18.5323H4ZM12.0914 10.4409C9.94542 10.4409 7.88734 11.2934 6.36991 12.8108C4.85248 14.3282 4 16.3863 4 18.5323H6.31182C6.31182 16.9994 6.92074 15.5294 8.00462 14.4455C9.0885 13.3616 10.5586 12.7527 12.0914 12.7527V10.4409Z" fill="#B6B6B6"/>
</g>
</svg>
