<svg width="24" height="24" viewBox="0 0 24 24" fill="none" xmlns="http://www.w3.org/2000/svg">
<path d="M13.1481 0.0407438C13.5756 0.109151 13.9801 0.272743 14.3432 0.563262C14.9381 1.03918 15.2214 1.63909 15.4404 2.51493C15.4964 2.73914 15.5934 3.00052 15.7146 3.25421C15.9927 3.37243 16.2648 3.50383 16.5299 3.6479C16.7917 3.58323 17.0431 3.49734 17.2438 3.40389C18.6561 2.74644 19.8408 2.78098 20.811 3.82744C20.8931 3.91595 20.9421 3.97458 21.0487 4.10623L21.678 4.88337C21.8472 5.09238 21.9195 5.18761 22.0263 5.3653C22.7182 6.51673 22.4484 7.58909 21.5739 8.7511C21.4288 8.9439 21.2806 9.1963 21.1567 9.46184C21.2349 9.74437 21.3 10.0309 21.3518 10.3206C21.5745 10.499 21.8113 10.6554 22.0204 10.7621C22.8245 11.1725 23.3454 11.5835 23.6753 12.2702C23.8766 12.6894 23.9451 13.1202 23.9155 13.5522C23.8999 13.7805 23.8753 13.9078 23.8095 14.1928L23.5845 15.1672C23.5187 15.4521 23.4851 15.5773 23.399 15.7894C23.2362 16.1906 22.9858 16.5479 22.6211 16.8364C22.0235 17.3089 21.3753 17.45 20.4726 17.4663C20.2443 17.4705 19.9714 17.5054 19.7 17.5652C19.5235 17.809 19.3356 18.0443 19.1369 18.2704C19.1403 18.5446 19.1676 18.814 19.2143 19.0344C19.4014 19.9176 19.4098 20.581 19.0837 21.2695C18.8847 21.6898 18.5929 22.0141 18.2386 22.2631C18.0513 22.3946 17.9369 22.4555 17.674 22.5837L16.7752 23.0221C16.5124 23.1503 16.3939 23.203 16.175 23.2696C15.7607 23.3955 15.3255 23.4258 14.8717 23.3238C14.1284 23.1569 13.6108 22.7419 13.0301 22.0506C12.8765 21.8679 12.6668 21.6691 12.4387 21.49C12.2929 21.4967 12.1467 21.5 12.0001 21.5C11.8535 21.5 11.7073 21.4967 11.5615 21.49C11.3334 21.6691 11.1236 21.8679 10.9701 22.0506C10.3894 22.7419 9.87176 23.1569 9.12845 23.3238C8.6747 23.4258 8.23948 23.3955 7.82522 23.2696C7.60625 23.203 7.4878 23.1503 7.22493 23.0221L6.32613 22.5837C6.24711 22.5453 6.19809 22.521 6.14084 22.4912C4.82929 21.8082 4.4448 20.6441 4.78589 19.0344C4.83259 18.814 4.85984 18.5446 4.86325 18.2704C4.66455 18.0443 4.47662 17.809 4.30015 17.5652C4.02873 17.5054 3.75588 17.4705 3.52755 17.4663C2.62491 17.45 1.97663 17.3089 1.3791 16.8364C1.01433 16.5479 0.763956 16.1906 0.601126 15.7894C0.515059 15.5773 0.481448 15.4521 0.415656 15.1672L0.190705 14.1928C0.121048 13.8911 0.0953873 13.7565 0.0821741 13.512C0.0574037 13.0537 0.145108 12.5984 0.37774 12.1664C0.716688 11.537 1.21839 11.1507 1.97976 10.7621C2.18888 10.6554 2.42565 10.499 2.64841 10.3206C2.70016 10.0309 2.76527 9.74437 2.84345 9.46184C2.71952 9.1963 2.57137 8.9439 2.42627 8.7511C1.55178 7.58909 1.28201 6.51673 1.97387 5.3653C2.08064 5.18761 2.15294 5.09238 2.32219 4.88337L2.95151 4.10623C3.05811 3.97458 3.10711 3.91595 3.18917 3.82744C4.15937 2.78098 5.34411 2.74644 6.75636 3.40389C6.95709 3.49734 7.20847 3.58323 7.47022 3.6479C7.73541 3.50383 8.00746 3.37243 8.28553 3.25421C8.40675 3.00052 8.50375 2.73914 8.5598 2.51493C8.77876 1.63909 9.06205 1.03918 9.65694 0.563262C10.0201 0.272743 10.4245 0.109151 10.8521 0.0407438C11.0329 0.0118175 11.1519 0.00309732 11.3421 0.000766277L12.5001 0C12.7926 0 12.9221 0.00458598 13.1481 0.0407438ZM12.5858 2.0002L11.5001 2C11.0001 2 10.7501 2 10.5001 3C10.3613 3.55507 10.0685 4.26419 9.66438 4.87084C9.02179 5.08124 8.41745 5.37609 7.86447 5.74228C7.1477 5.67166 6.42438 5.45545 5.91227 5.21704C4.97779 4.78201 4.82046 4.97629 4.5058 5.36487L3.87648 6.14201C3.56182 6.53059 3.40449 6.72487 4.02431 7.54848C4.37316 8.01204 4.74544 8.69838 4.96132 9.40453C4.74026 10.0038 4.59355 10.6392 4.53239 11.2993C4.03077 11.8335 3.40143 12.282 2.88886 12.5436C1.97073 13.0121 2.02697 13.2557 2.13944 13.7429L2.3644 14.7173C2.47687 15.2044 2.53311 15.448 3.56372 15.4667C4.13354 15.477 4.88668 15.6018 5.5666 15.8571C5.91193 16.4319 6.33211 16.9565 6.81365 17.4177C6.908 18.1352 6.86015 18.8935 6.74245 19.449C6.52878 20.4574 6.75348 20.567 7.20288 20.7862L8.10167 21.2245C8.55107 21.4437 8.77576 21.5533 9.43883 20.7641C9.81063 20.3216 10.3926 19.8067 11.0293 19.4377C11.3471 19.4788 11.6711 19.5 12.0001 19.5C12.329 19.5 12.6531 19.4788 12.9709 19.4377C13.6075 19.8067 14.1895 20.3216 14.5613 20.7641C15.2244 21.5533 15.4491 21.4437 15.8985 21.2245L16.7973 20.7862C17.2467 20.567 17.4714 20.4574 17.2577 19.449C17.14 18.8935 17.0922 18.1352 17.1865 17.4177C17.6681 16.9565 18.0882 16.4319 18.4336 15.8571C19.1135 15.6018 19.8666 15.477 20.4365 15.4667C21.4671 15.448 21.5233 15.2044 21.6358 14.7173L21.8607 13.7429C21.9732 13.2557 22.0294 13.0121 21.1113 12.5436C20.5987 12.282 19.9694 11.8335 19.4678 11.2993C19.4066 10.6392 19.2599 10.0038 19.0388 9.40453C19.2547 8.69838 19.627 8.01204 19.9759 7.54848C20.5957 6.72487 20.4383 6.53059 20.1237 6.14201L19.4944 5.36487C19.1797 4.97629 19.0224 4.78201 18.0879 5.21704C17.5758 5.45545 16.8525 5.67166 16.1357 5.74228C15.5827 5.37609 14.9784 5.08124 14.3358 4.87084C13.9317 4.26419 13.6389 3.55507 13.5001 3C13.2648 2.05882 13.0295 2.00346 12.5858 2.0002ZM12.0001 7.5C14.4854 7.5 16.5001 9.51472 16.5001 12C16.5001 14.4853 14.4854 16.5 12.0001 16.5C9.5148 16.5 7.50008 14.4853 7.50008 12C7.50008 9.51472 9.5148 7.5 12.0001 7.5ZM12.0001 9.5C10.6194 9.5 9.50008 10.6193 9.50008 12C9.50008 13.3807 10.6194 14.5 12.0001 14.5C13.3808 14.5 14.5001 13.3807 14.5001 12C14.5001 10.6193 13.3808 9.5 12.0001 9.5Z" fill="#9181FE"/>
</svg>
