<svg width="24" height="24" viewBox="0 0 24 24" fill="none" xmlns="http://www.w3.org/2000/svg">
<path fill-rule="evenodd" clip-rule="evenodd" d="M12 0C8.68658 0 5.68513 1.3443 3.51472 3.51472C1.3443 5.68513 0 8.68658 0 12C0 15.3134 1.3443 18.3149 3.51472 20.4853C5.68513 22.6557 8.68658 24 12 24C15.3134 24 18.3149 22.6557 20.4853 20.4853C22.6557 18.3149 24 15.3134 24 12C24 8.68658 22.6557 5.68513 20.4853 3.51472C18.3149 1.3443 15.3134 0 12 0ZM5.01212 5.01212C6.80163 3.22261 9.27077 2.11765 12 2.11765C14.7292 2.11765 17.1984 3.22261 18.9879 5.01212C20.7774 6.80163 21.8824 9.27077 21.8824 12C21.8824 14.7292 20.7774 17.1984 18.9879 18.9879C17.1984 20.7774 14.7292 21.8824 12 21.8824C9.27077 21.8824 6.80163 20.7774 5.01212 18.9879C3.22261 17.1984 2.11765 14.7292 2.11765 12C2.11765 9.27077 3.22261 6.80163 5.01212 5.01212ZM13.4253 5.78996C12.81 4.6617 11.19 4.66169 10.5747 5.78995L9.25325 8.21293L6.54052 8.72093C5.27734 8.95748 4.77672 10.4982 5.65962 11.4321L7.55566 13.4376L7.20052 16.1745C7.03515 17.449 8.3458 18.4012 9.50677 17.8501L12 16.6666L14.4932 17.8501C15.6542 18.4012 16.9649 17.449 16.7995 16.1745L16.4443 13.4376L18.3404 11.4321C19.2233 10.4982 18.7227 8.95748 17.4595 8.72093L14.7468 8.21293L13.4253 5.78996ZM10.6311 10.1094L12 7.5993L13.3689 10.1094L16.1792 10.6356L14.215 12.7132L14.5829 15.5485L12 14.3225L9.41715 15.5485L9.78506 12.7132L7.82085 10.6356L10.6311 10.1094Z" fill="#888888"/>
</svg>
