<svg width="24" height="24" viewBox="0 0 24 24" fill="none" xmlns="http://www.w3.org/2000/svg">
<g id="thumbs_up_outline_20">
<g id="source">
<path id="&#226;&#134;&#179; Icon Color" fill-rule="evenodd" clip-rule="evenodd" d="M11.3817 2.69215C11.5348 1.93265 12.3153 1.47595 13.0524 1.71453C13.5875 1.88772 13.95 2.38605 13.95 2.94848V6.83433C13.95 7.24854 14.2858 7.58433 14.7 7.58433H15.9C17.6168 7.58433 18.7339 7.94521 19.4311 8.61332C20.1218 9.27523 20.55 10.3837 20.55 12.2343V12.8343C20.55 14.6849 20.1218 15.7934 19.4311 16.4553C18.7339 17.1234 17.6168 17.4843 15.9 17.4843H12.9116H8.39912C8.39981 17.345 8.39981 17.1942 8.39981 17.0303V10.4342C8.39981 10.0578 8.39981 9.75055 8.39152 9.49237L9.45236 8.75196C9.98087 8.38309 10.3469 7.82471 10.4742 7.19292L11.3817 2.69215ZM6.81022 8.99153C6.76365 9.17793 6.78854 9.38121 6.89286 9.55651C6.89938 9.77228 6.89981 10.0487 6.89981 10.4342V17.0303C6.89981 17.3489 6.89951 17.593 6.89573 17.79C6.80413 17.9143 6.75 18.068 6.75 18.2343C6.75 18.3263 6.76655 18.4143 6.79683 18.4958C6.72009 18.6211 6.60528 18.72 6.46781 18.7769C6.46866 18.7766 6.46914 18.7764 6.46918 18.7764C6.46962 18.7765 6.41255 18.7984 6.20144 18.8128C5.95754 18.8295 5.63286 18.8303 5.0998 18.8303C4.56675 18.8303 4.24207 18.8295 3.99817 18.8128C3.76864 18.7972 3.72121 18.7726 3.7318 18.7769C3.56038 18.7059 3.42418 18.5697 3.35314 18.3983C3.35387 18.4 3.3538 18.4002 3.35309 18.3982C3.34955 18.388 3.33031 18.3231 3.31726 18.1319C3.30062 17.888 3.2998 17.5633 3.2998 17.0303V10.4342C3.2998 9.90109 3.30062 9.57642 3.31726 9.33252C3.33298 9.10209 3.35768 9.05519 3.35309 9.06628C3.42413 8.89476 3.56041 8.75848 3.73193 8.68744C3.72084 8.69203 3.76774 8.66733 3.99817 8.65161C4.24207 8.63497 4.56675 8.63416 5.0998 8.63416C5.63286 8.63416 5.95754 8.63497 6.20144 8.65161C6.43097 8.66727 6.4784 8.69184 6.46781 8.68749C6.61353 8.74788 6.73379 8.85536 6.81022 8.99153ZM7.93504 7.98175L8.59387 7.52193C8.8059 7.37394 8.95273 7.14993 9.00383 6.89646L9.91124 2.39569C10.2415 0.757805 11.9247 -0.227085 13.5143 0.287422C14.6683 0.660911 15.45 1.73559 15.45 2.94848V6.08433H15.9C17.7832 6.08433 19.3661 6.47344 20.4689 7.53033C21.5782 8.59342 22.05 10.1849 22.05 12.2343V12.8343C22.05 14.8837 21.5782 16.4752 20.4689 17.5383C19.3661 18.5952 17.7832 18.9843 15.9 18.9843H12.9116H8.22727C8.00261 19.5177 7.57672 19.9412 7.04171 20.1628C6.63741 20.3303 6.12488 20.3303 5.0998 20.3303C4.07473 20.3303 3.5622 20.3303 3.1579 20.1628C2.61884 19.9395 2.19056 19.5112 1.96727 18.9722C1.7998 18.5679 1.7998 18.0553 1.7998 17.0303V10.4342C1.7998 9.40908 1.7998 8.89655 1.96727 8.49225C2.19056 7.95319 2.61884 7.52491 3.1579 7.30162C3.5622 7.13415 4.07473 7.13415 5.0998 7.13415C6.12488 7.13415 6.63741 7.13415 7.04171 7.30162C7.39639 7.44853 7.70311 7.68419 7.93504 7.98175Z" fill="#FDFDFD"/>
</g>
<path id="&#226;&#134;&#179; Icon Color_2" fill-rule="evenodd" clip-rule="evenodd" d="M7.68801 7.97077L8.50782 7.39859C8.6882 7.27269 8.81311 7.08212 8.85659 6.86649L9.764 2.36572C10.1119 0.639991 11.8854 -0.39772 13.5603 0.14438C14.7761 0.537899 15.5998 1.6702 15.5998 2.94814V5.93399H15.8998C17.7996 5.93399 19.4291 6.32593 20.5725 7.4217C21.7237 8.52491 22.1998 10.1647 22.1998 12.234V12.834C22.1998 14.9033 21.7237 16.5431 20.5725 17.6463C19.4291 18.742 17.7996 19.134 15.8998 19.134H7.97008C7.58915 19.7168 6.98448 20.1382 6.27484 20.2794C6.01982 20.3301 5.71315 20.3301 5.09981 20.3301C4.48646 20.3301 4.17979 20.3301 3.92477 20.2794C2.8775 20.0711 2.05885 19.2524 1.85053 18.2052C1.7998 17.9501 1.7998 17.6435 1.7998 17.0301V10.434C1.7998 9.82066 1.7998 9.51398 1.85053 9.25896C2.05885 8.2117 2.8775 7.39304 3.92477 7.18473C4.17979 7.134 4.48646 7.134 5.09981 7.134C5.71315 7.134 6.01982 7.134 6.27484 7.18473C6.82864 7.29489 7.31851 7.57572 7.68801 7.97077ZM11.5285 2.72146C11.6639 2.04981 12.3541 1.64593 13.006 1.85691C13.4792 2.01007 13.7998 2.45077 13.7998 2.94814V6.83399C13.7998 7.33105 14.2027 7.73399 14.6998 7.73399H15.8998C17.6 7.73399 18.6705 8.09206 19.3271 8.72128C19.9759 9.34308 20.3998 10.4033 20.3998 12.234V12.834C20.3998 14.6647 19.9759 15.7249 19.3271 16.3467C18.6705 16.9759 17.6 17.334 15.8998 17.334H8.39951C8.39981 17.2417 8.39981 17.1409 8.39981 17.0301V10.434C8.39981 10.1062 8.39981 9.86598 8.39206 9.67444L9.53801 8.87463C10.0982 8.48368 10.4861 7.89185 10.6211 7.22223L11.5285 2.72146ZM6.59981 10.434V17.0301C6.59981 17.349 6.59956 17.5431 6.59452 17.6904C6.59051 17.8076 6.58446 17.849 6.58355 17.8546C6.51712 18.1873 6.25701 18.4474 5.92426 18.5139C5.91872 18.5148 5.87738 18.5208 5.76011 18.5248C5.61283 18.5299 5.41869 18.5301 5.09981 18.5301C4.78093 18.5301 4.58678 18.5299 4.4395 18.5248C4.32224 18.5208 4.28089 18.5148 4.27535 18.5139C3.9426 18.4474 3.68249 18.1873 3.61606 17.8546C3.61515 17.849 3.60911 17.8077 3.60509 17.6904C3.60005 17.5431 3.5998 17.349 3.5998 17.0301V10.434C3.5998 10.1151 3.60005 9.92098 3.60509 9.7737C3.6091 9.6565 3.61515 9.61513 3.61606 9.60956C3.68249 9.2768 3.9426 9.01668 4.27536 8.95026C4.28094 8.94934 4.32231 8.9433 4.4395 8.93929C4.58678 8.93425 4.78093 8.934 5.09981 8.934C5.41868 8.934 5.61283 8.93425 5.76011 8.93929C5.87729 8.9433 5.91866 8.94934 5.92425 8.95026C6.25701 9.01668 6.51713 9.2768 6.58355 9.60956C6.58447 9.61515 6.59051 9.65652 6.59452 9.7737C6.59956 9.92098 6.59981 10.1151 6.59981 10.434Z" fill="#FDFDFD"/>
</g>
</svg>
