<svg width="24" height="24" viewBox="0 0 24 24" fill="none" xmlns="http://www.w3.org/2000/svg">
<g id="thumbs_up_outline_20">
<g id="Group 7058">
<g id="source">
<path id="&#226;&#134;&#179; Icon Color" fill-rule="evenodd" clip-rule="evenodd" d="M12.6183 21.3079C12.4652 22.0673 11.6847 22.524 10.9476 22.2855C10.4125 22.1123 10.05 21.6139 10.05 21.0515V17.1657C10.05 16.7515 9.71421 16.4157 9.3 16.4157H8.1C6.3832 16.4157 5.26608 16.0548 4.56893 15.3867C3.87823 14.7248 3.45 13.6163 3.45 11.7657V11.1657C3.45 9.31507 3.87823 8.20659 4.56893 7.54467C5.26608 6.87657 6.38319 6.51569 8.1 6.51569H11.0884H15.6009C15.6002 6.65503 15.6002 6.80582 15.6002 6.96972L15.6002 13.5658C15.6002 13.9422 15.6002 14.2494 15.6085 14.5076L14.5476 15.248C14.0191 15.6169 13.6531 16.1753 13.5258 16.8071L12.6183 21.3079ZM17.1898 15.0085C17.2363 14.8221 17.2115 14.6188 17.1071 14.4435C17.1006 14.2277 17.1002 13.9513 17.1002 13.5658V6.96972C17.1002 6.65113 17.1005 6.40698 17.1043 6.21002C17.1959 6.08566 17.25 5.932 17.25 5.76569C17.25 5.67374 17.2335 5.58565 17.2032 5.50425C17.2799 5.37891 17.3947 5.28003 17.5322 5.22306C17.5313 5.22341 17.5309 5.22357 17.5308 5.22357C17.5304 5.22352 17.5874 5.20158 17.7986 5.18718C18.0425 5.17054 18.3671 5.16972 18.9002 5.16972C19.4333 5.16972 19.7579 5.17054 20.0018 5.18718C20.2314 5.20284 20.2788 5.22741 20.2682 5.22306C20.4396 5.2941 20.5758 5.4303 20.6469 5.60172C20.6461 5.59995 20.6462 5.5998 20.6469 5.60184C20.6505 5.61204 20.6697 5.67686 20.6827 5.86809C20.6994 6.11199 20.7002 6.43666 20.7002 6.96972L20.7002 13.5658C20.7002 14.0989 20.6994 14.4236 20.6827 14.6675C20.667 14.8979 20.6423 14.9448 20.6469 14.9337C20.5759 15.1052 20.4396 15.2415 20.2681 15.3126C20.2792 15.308 20.2323 15.3327 20.0018 15.3484C19.7579 15.365 19.4333 15.3658 18.9002 15.3658C18.3671 15.3658 18.0425 15.365 17.7986 15.3484C17.569 15.3327 17.5216 15.3082 17.5322 15.3125C17.3865 15.2521 17.2662 15.1446 17.1898 15.0085ZM16.065 16.0182L15.4061 16.4781C15.1941 16.6261 15.0473 16.8501 14.9962 17.1035L14.0888 21.6043C13.7585 23.2422 12.0753 24.2271 10.4857 23.7126C9.33173 23.3391 8.55 22.2644 8.55 21.0515V17.9157H8.1C6.21681 17.9157 4.63392 17.5266 3.53107 16.4697C2.42177 15.4066 1.95 13.8151 1.95 11.7657V11.1657C1.95 9.11627 2.42177 7.52477 3.53107 6.46169C4.63392 5.4048 6.21681 5.01569 8.1 5.01569H11.0884H15.7727C15.9974 4.48234 16.4233 4.0588 16.9583 3.83719C17.3626 3.66972 17.8751 3.66972 18.9002 3.66972C19.9253 3.66972 20.4378 3.66972 20.8421 3.83719C21.3812 4.06047 21.8094 4.48876 22.0327 5.02782C22.2002 5.43212 22.2002 5.94465 22.2002 6.96972L22.2002 13.5658C22.2002 14.5909 22.2002 15.1035 22.0327 15.5077C21.8094 16.0468 21.3812 16.4751 20.8421 16.6984C20.4378 16.8658 19.9253 16.8658 18.9002 16.8658C17.8751 16.8658 17.3626 16.8658 16.9583 16.6984C16.6036 16.5515 16.2969 16.3158 16.065 16.0182Z" fill="#FDFDFD"/>
</g>
<path id="&#226;&#134;&#179; Icon Color_2" fill-rule="evenodd" clip-rule="evenodd" d="M16.312 16.0292L15.4922 16.6014C15.3118 16.7273 15.1869 16.9179 15.1434 17.1335L14.236 21.6343C13.8881 23.36 12.1146 24.3977 10.4397 23.8556C9.22386 23.4621 8.4002 22.3298 8.4002 21.0519V18.066H8.1002C6.20037 18.066 4.5709 17.6741 3.42748 16.5783C2.27632 15.4751 1.8002 13.8353 1.8002 11.766V11.166C1.8002 9.09673 2.27632 7.45692 3.42749 6.35373C4.5709 5.25795 6.20037 4.86602 8.1002 4.86602H16.0299C16.4109 4.28315 17.0155 3.86176 17.7252 3.7206C17.9802 3.66988 18.2869 3.66988 18.9002 3.66988C19.5135 3.66988 19.8202 3.66988 20.0752 3.7206C21.1225 3.92892 21.9412 4.74757 22.1495 5.79484C22.2002 6.04986 22.2002 6.35653 22.2002 6.96988L22.2002 13.566C22.2002 14.1793 22.2002 14.486 22.1495 14.741C21.9412 15.7883 21.1225 16.607 20.0752 16.8153C19.8202 16.866 19.5135 16.866 18.9002 16.866C18.2869 16.866 17.9802 16.866 17.7252 16.8153C17.1714 16.7051 16.6815 16.4243 16.312 16.0292ZM12.4715 21.2785C12.3361 21.9502 11.6459 22.3541 10.994 22.1431C10.5208 21.9899 10.2002 21.5492 10.2002 21.0519V17.166C10.2002 16.6689 9.79726 16.266 9.3002 16.266H8.1002C6.40004 16.266 5.3295 15.9079 4.67292 15.2787C4.02408 14.6569 3.6002 13.5967 3.6002 11.766V11.166C3.6002 9.33529 4.02408 8.2751 4.67291 7.65331C5.3295 7.02408 6.40003 6.66602 8.1002 6.66602H15.6005C15.6002 6.7583 15.6002 6.85909 15.6002 6.96988L15.6002 13.566C15.6002 13.8938 15.6002 14.134 15.6079 14.3256L14.462 15.1254C13.9018 15.5163 13.5139 16.1081 13.3789 16.7778L12.4715 21.2785ZM17.4002 13.566V6.96988C17.4002 6.651 17.4004 6.45685 17.4055 6.30957C17.4095 6.19235 17.4155 6.15099 17.4164 6.14543C17.4829 5.81267 17.743 5.55256 18.0757 5.48613C18.0813 5.48523 18.1226 5.47918 18.2399 5.47516C18.3872 5.47012 18.5813 5.46988 18.9002 5.46988C19.2191 5.46988 19.4132 5.47012 19.5605 5.47516C19.6778 5.47918 19.7191 5.48522 19.7246 5.48613C20.0574 5.55256 20.3175 5.81267 20.3839 6.14542C20.3848 6.15096 20.3909 6.19231 20.3949 6.30957C20.4 6.45685 20.4002 6.651 20.4002 6.96988L20.4002 13.566C20.4002 13.8849 20.4 14.079 20.3949 14.2263C20.3909 14.3435 20.3849 14.3849 20.3839 14.3904C20.3175 14.7232 20.0574 14.9833 19.7246 15.0497C19.7191 15.0507 19.6777 15.0567 19.5605 15.0607C19.4132 15.0658 19.2191 15.066 18.9002 15.066C18.5813 15.066 18.3872 15.0658 18.2399 15.0607C18.1227 15.0567 18.0813 15.0507 18.0758 15.0497C17.743 14.9833 17.4829 14.7232 17.4164 14.3904C17.4155 14.3848 17.4095 14.3435 17.4055 14.2263C17.4004 14.079 17.4002 13.8849 17.4002 13.566Z" fill="#FDFDFD"/>
</g>
</g>
</svg>
