<svg width="26" height="26" viewBox="0 0 26 26" fill="none" xmlns="http://www.w3.org/2000/svg">
<path fill-rule="evenodd" clip-rule="evenodd" d="M19.3764 2.40482C18.8057 1.8342 18.3345 1.36307 17.918 1.0111C17.4926 0.651567 17.0614 0.360386 16.5488 0.193821C15.7454 -0.067211 14.88 -0.0672112 14.0767 0.193821C13.5586 0.362144 13.1236 0.657812 12.6936 1.0228C12.2797 1.37422 11.8099 1.84399 11.2407 2.4132L2.41418 11.2397C1.84498 11.8089 1.37519 12.2787 1.02378 12.6926C0.65879 13.1226 0.363121 13.5576 0.194797 14.0757C-0.0662351 14.8791 -0.066234 15.7444 0.194797 16.5478C0.361362 17.0605 0.652544 17.4917 1.01208 17.9171C1.36405 18.3335 1.83518 18.8047 2.4058 19.3754C2.76745 19.7371 3.34373 19.7675 3.74152 19.446C4.52611 18.8119 5.6806 18.8601 6.41024 19.5898C7.13987 20.3194 7.18812 21.4739 6.55397 22.2585C6.23246 22.6563 6.26293 23.2325 6.62461 23.5942C7.19526 24.1648 7.6665 24.6359 8.08295 24.9879C8.50834 25.3475 8.93955 25.6386 9.45219 25.8052C10.2556 26.0662 11.1209 26.0662 11.9243 25.8052C12.4424 25.6369 12.8774 25.3412 13.3074 24.9762C13.7213 24.6248 14.1911 24.155 14.7603 23.5858L23.5868 14.7593C24.156 14.1901 24.6258 13.7203 24.9772 13.3064C25.3422 12.8764 25.6379 12.4414 25.8062 11.9233C26.0672 11.12 26.0672 10.2546 25.8062 9.45121C25.6396 8.93857 25.3484 8.50737 24.9889 8.08198C24.6369 7.66553 24.1658 7.19428 23.5952 6.62364C23.2335 6.26196 22.6572 6.23149 22.2594 6.55301C21.4749 7.18716 20.3203 7.13892 19.5907 6.40928C18.8611 5.67964 18.8128 4.52513 19.447 3.74055C19.7685 3.34276 19.738 2.76648 19.3764 2.40482ZM15.9308 2.09593C16.0959 2.14957 16.2979 2.26041 16.627 2.5386C16.8458 2.72354 17.0925 2.9573 17.3999 3.25981C16.6832 4.74884 16.9418 6.58884 18.1765 7.8235C19.4112 9.05815 21.2511 9.3168 22.7402 8.60004C23.0427 8.90748 23.2765 9.15418 23.4614 9.373C23.7396 9.70215 23.8504 9.90415 23.9041 10.0692C24.0346 10.4709 24.0346 10.9036 23.9041 11.3053C23.8498 11.4723 23.7372 11.6767 23.4525 12.012C23.1603 12.3563 22.7491 12.7686 22.1434 13.3743L20.4665 15.0512L19.2076 13.7923C18.8171 13.4018 18.1839 13.4018 17.7934 13.7923C17.4029 14.1829 17.4029 14.816 17.7934 15.2066L19.0522 16.4654L13.3753 22.1424C12.7696 22.7481 12.3573 23.1593 12.013 23.4516C11.6777 23.7362 11.4732 23.8489 11.3063 23.9031C10.9046 24.0336 10.4719 24.0336 10.0702 23.9031C9.90513 23.8495 9.70312 23.7386 9.37397 23.4604C9.15515 23.2755 8.90846 23.0417 8.60101 22.7392C9.31775 21.2502 9.0591 19.4102 7.82445 18.1755C6.5898 16.9409 4.74982 16.6822 3.2608 17.399C2.95828 17.0915 2.72452 16.8448 2.53958 16.626C2.26139 16.2969 2.15055 16.0949 2.09691 15.9298C1.96639 15.5281 1.96639 15.0954 2.09691 14.6937C2.15115 14.5268 2.26378 14.3223 2.54846 13.987C2.84072 13.6427 3.25191 13.2304 3.8576 12.6248L9.53459 6.94777L10.7934 8.20656C11.1839 8.59709 11.8171 8.59709 12.2076 8.20656C12.5981 7.81604 12.5981 7.18287 12.2076 6.79235L10.9488 5.53355L12.6257 3.85662C13.2314 3.25093 13.6437 2.83974 13.988 2.54748C14.3233 2.2628 14.5278 2.15018 14.6947 2.09593C15.0964 1.96542 15.5291 1.96542 15.9308 2.09593ZM14.9576 9.54235C14.5671 9.15183 13.9339 9.15183 13.5434 9.54235C13.1529 9.93287 13.1529 10.566 13.5434 10.9566L15.0434 12.4566C15.4339 12.8471 16.0671 12.8471 16.4576 12.4566C16.8481 12.066 16.8481 11.4329 16.4576 11.0424L14.9576 9.54235Z" fill="#9181FE"/>
</svg>
