<svg width="24" height="24" viewBox="0 0 24 24" fill="none" xmlns="http://www.w3.org/2000/svg">
<g id="voice_outline_24">
<g id="&#226;&#134;&#179; Icon Color">
<path fill-rule="evenodd" clip-rule="evenodd" d="M7.10037 6.9C7.10037 4.1938 9.29418 2 12.0004 2C14.7066 2 16.9004 4.19381 16.9004 6.9V11.1C16.9004 13.8062 14.7066 16 12.0004 16C9.29418 16 7.10037 13.8062 7.10037 11.1V6.9ZM12.0004 3.8C10.2883 3.8 8.90037 5.18791 8.90037 6.9V11.1C8.90037 12.8121 10.2883 14.2 12.0004 14.2C13.7125 14.2 15.1004 12.8121 15.1004 11.1V6.9C15.1004 5.18792 13.7125 3.8 12.0004 3.8Z" fill="#888888"/>
<path d="M19.6799 15.3498C19.9283 14.9193 19.7807 14.3689 19.3502 14.1205C18.9197 13.872 18.3693 14.0197 18.1208 14.4502C16.8938 16.5764 14.6105 18 12.0003 18C9.39022 18 7.10684 16.5764 5.87987 14.4502C5.63143 14.0197 5.08104 13.872 4.65052 14.1205C4.22 14.3689 4.07239 14.9193 4.32082 15.3498C5.71226 17.7611 8.19875 19.4607 11.1004 19.7547V22.1C11.1004 22.5971 11.5033 23 12.0004 23C12.4974 23 12.9004 22.5971 12.9004 22.1V19.7547C15.802 19.4607 18.2884 17.7611 19.6799 15.3498Z" fill="#888888"/>
</g>
</g>
</svg>
